# Blender v2.78 (sub 4) OBJ File: 'untitled.blend'
# www.blender.org
mtllib flag2.mtl
o lod0_Plane.004_Plane.028
v -0.023235 0.269718 -0.041265
v 0.003685 0.077830 -0.145910
v -0.020587 0.104637 -0.118564
v -0.045518 0.132137 -0.185238
v 0.028428 0.087839 -0.157118
v -0.135163 0.084467 -0.132422
v -0.110244 0.075472 -0.182635
v 0.118567 0.067719 -0.095380
v 0.129383 0.105672 -0.055655
v 0.131150 0.125837 -0.124654
v 0.178908 0.197389 0.001211
v 0.224539 0.184016 -0.058258
v 0.151937 0.080821 -0.115442
v 0.165863 0.262770 -0.059395
v 0.153776 0.287775 0.050769
v 0.179468 0.348322 0.011372
v 0.172164 0.361708 0.169321
v 0.153435 0.393051 0.111889
v 0.195143 0.341565 0.046821
v 0.114577 0.316107 0.256967
v 0.092751 0.322484 0.095146
v 0.156363 0.340068 0.112155
v -0.083414 0.296334 0.209758
v 0.086246 0.297991 0.158699
v 0.099612 0.373053 0.218914
v 0.084827 0.037139 0.266103
v 0.094486 0.245742 0.198900
v -0.024646 -0.082554 0.236293
v 0.060231 -0.113497 0.298538
v -0.105997 -0.074426 0.228055
v -0.051179 -0.058812 0.266851
v 0.084382 -0.089966 0.303496
v 0.122726 -0.081451 0.253536
v 0.093157 -0.128806 0.280175
v -0.045123 0.010095 0.203999
v -0.017752 0.043045 0.255039
v -0.174750 -0.046351 0.179724
v -0.164315 -0.033406 0.163554
v -0.225164 0.037779 0.096081
v -0.235552 -0.041133 0.125732
v -0.232205 -0.018574 0.165047
v -0.162975 0.244844 0.081390
v 0.195700 0.054500 -0.050350
v 0.176740 0.063021 -0.014631
v 0.221389 0.092372 -0.000640
v 0.238204 0.106495 -0.023135
v 0.117728 0.259375 0.255066
v 0.136551 -0.065859 0.269721
v -0.158280 0.289134 0.050952
v -0.121537 0.366295 0.145000
v -0.257818 0.008787 0.115813
v -0.191351 0.316702 0.116176
v -0.172964 0.276002 0.158945
v -0.052569 0.121715 0.155273
v -0.167989 0.084466 0.178703
v 0.004654 0.273829 -0.090291
v -0.117640 0.391668 0.066840
v 0.109024 0.059165 0.238349
v -0.073146 0.313458 0.077900
v 0.038516 0.388587 0.170666
v -0.195783 0.293495 0.090397
v -0.203770 0.093946 0.077223
v -0.222121 0.084697 0.116351
v 0.076769 0.081749 0.211062
v -0.136817 0.139608 -0.181257
v -0.163617 0.109630 -0.161752
v -0.125756 0.281215 -0.107116
v -0.163036 0.287434 -0.055485
v -0.158129 0.295427 0.007891
v -0.151740 0.351673 -0.025894
v -0.133978 0.224966 -0.079491
v -0.187447 0.340475 0.010734
v -0.166957 0.227479 -0.125654
v -0.056132 0.225058 -0.036961
v -0.052397 0.195320 0.000241
v -0.027077 0.124672 -0.080954
v -0.024275 -0.011391 -0.050928
v 0.036160 0.080430 -0.088949
v 0.035085 -0.048414 -0.109576
v -0.005151 -0.060629 -0.043275
v 0.018019 -0.095908 -0.045235
v -0.030610 0.019949 -0.071350
v -0.026168 -0.072388 -0.103825
v 0.036008 -0.173160 -0.164469
v 0.005295 -0.274192 -0.114442
v 0.005831 -0.146779 -0.150299
v -0.001444 -0.271149 -0.143045
v 0.021802 -0.314764 -0.106815
v 0.036699 -0.353582 -0.188505
v 0.076862 -0.331223 -0.173596
v 0.039873 -0.512459 -0.190250
v 0.008136 -0.410654 -0.151576
v 0.084570 -0.480247 -0.149470
v 0.048867 -0.603765 -0.195469
v 0.001806 -0.515808 -0.164619
v 0.002410 -0.641060 -0.189759
v 0.005503 -0.578354 -0.139673
v -0.007451 -0.765186 -0.111862
v -0.036029 -0.796075 -0.182397
v -0.019445 -0.776547 -0.221181
v 0.073089 -0.634727 -0.171423
v 0.110342 -0.762131 -0.151810
v 0.091495 -0.811657 -0.127658
v 0.072351 -0.717398 -0.101456
v 0.018229 -0.821371 -0.111953
v 0.102832 -0.799842 -0.216513
v 0.053643 -0.604788 -0.111907
v 0.032721 -0.495355 -0.114549
v 0.057040 -0.474032 -0.113708
v 0.080564 -0.355125 -0.123711
v 0.064591 -0.281647 -0.091959
v 0.091645 -0.206729 -0.141644
v 0.086142 -0.233037 -0.093621
v -0.001206 0.229879 0.022105
v -0.029848 0.190810 0.022187
v 0.003562 0.218043 -0.020818
v 0.003986 0.135869 0.001072
v 0.038330 0.065344 -0.036698
v -0.082778 0.294762 0.058011
v -0.031394 0.278020 0.080013
v -0.003758 0.317450 0.070436
v -0.080124 0.298230 0.006170
v -0.008646 0.173161 -0.075987
v 0.008544 -0.029850 -0.111556
v 0.030233 -0.784724 -0.244142
v 0.052625 -0.058334 -0.071907
v -0.070542 0.317904 0.013274
v -0.071271 0.316085 0.047641
v -0.031257 0.284835 -0.025214
v -0.017422 0.323373 0.034357
v -0.041092 0.315042 0.083561
v 0.009766 0.304289 0.016680
vt 0.458306 0.486464
vt 0.446373 0.498819
vt 0.449143 0.444071
vt 0.546782 0.700900
vt 0.533741 0.647724
vt 0.556376 0.675047
vt 0.008681 0.267562
vt 0.072260 0.268949
vt 0.089245 0.297073
vt 0.477067 0.433387
vt 0.474778 0.512386
vt 0.470747 0.498756
vt 0.482356 0.549197
vt 0.448698 0.523291
vt 0.462400 0.517273
vt 0.033344 0.240370
vt 0.083180 0.256532
vt 0.091906 0.287064
vt 0.140267 0.318329
vt 0.570734 0.710984
vt 0.065362 0.984014
vt 0.054948 0.971944
vt 0.065362 0.958812
vt 0.146557 0.267915
vt 0.107204 0.263179
vt 0.336739 0.569173
vt 0.328129 0.576921
vt 0.313985 0.571363
vt 0.210610 0.748400
vt 0.215890 0.690371
vt 0.215890 0.759181
vt 0.027773 0.353865
vt 0.095214 0.369745
vt 0.034685 0.377599
vt 0.657907 0.810714
vt 0.646819 0.805814
vt 0.645250 0.756688
vt 0.628607 0.751307
vt 0.786373 0.217573
vt 0.780569 0.275029
vt 0.768158 0.227052
vt 0.086052 0.387503
vt 0.640972 0.717002
vt 0.178975 0.645506
vt 0.163404 0.604350
vt 0.190562 0.623909
vt 0.569438 0.730136
vt 0.569438 0.785723
vt 0.548166 0.728528
vt 0.452237 0.241222
vt 0.482531 0.217573
vt 0.512324 0.265911
vt 0.761076 0.309383
vt 0.217120 0.579707
vt 0.217120 0.681521
vt 0.443522 0.313440
vt 0.512324 0.348015
vt 0.442304 0.417082
vt 0.511624 0.400647
vt 0.140004 0.811280
vt 0.154234 0.786056
vt 0.154234 0.860532
vt 0.860684 0.772451
vt 0.864145 0.830565
vt 0.851545 0.819965
vt 0.103322 0.072799
vt 0.154576 0.015215
vt 0.148785 0.073138
vt 0.848032 0.738375
vt 0.092140 0.026411
vt 0.144243 0.004425
vt 0.336023 0.278741
vt 0.313731 0.217573
vt 0.340824 0.219966
vt 0.004414 0.044284
vt 0.754062 0.967372
vt 0.767472 0.957127
vt 0.767472 0.986994
vt 0.745234 0.957127
vt 0.745234 0.989070
vt 0.732330 0.983960
vt 0.531540 0.782965
vt 0.521152 0.753109
vt 0.895121 0.962325
vt 0.875112 0.949145
vt 0.895121 0.904707
vt 0.657907 0.715282
vt 0.729765 0.513312
vt 0.725550 0.545748
vt 0.712879 0.491469
vt 0.771247 0.886073
vt 0.762185 0.842046
vt 0.771247 0.797257
vt 0.694729 0.846814
vt 0.672454 0.827683
vt 0.694729 0.736747
vt 0.013023 0.983665
vt 0.004414 0.945706
vt 0.013023 0.942054
vt 0.752248 0.249610
vt 0.728017 0.232935
vt 0.741174 0.217573
vt 0.154576 0.196443
vt 0.251289 0.324238
vt 0.188276 0.271187
vt 0.253892 0.259515
vt 0.349652 0.346759
vt 0.359811 0.225639
vt 0.405393 0.226080
vt 0.687456 0.693429
vt 0.672454 0.591325
vt 0.690286 0.621147
vt 0.101517 0.573280
vt 0.101517 0.704497
vt 0.054948 0.638743
vt 0.163404 0.286561
vt 0.211661 0.392963
vt 0.170571 0.364940
vt 0.647937 0.203942
vt 0.590206 0.164281
vt 0.647937 0.127063
vt 0.463682 0.568809
vt 0.458487 0.609558
vt 0.442304 0.613870
vt 0.717919 0.177539
vt 0.679362 0.152735
vt 0.705705 0.151531
vt 0.723502 0.575980
vt 0.697072 0.564362
vt 0.320755 0.400753
vt 0.301117 0.394107
vt 0.337140 0.385195
vt 0.388419 0.922530
vt 0.383307 0.895260
vt 0.388419 0.856669
vt 0.020780 0.710423
vt 0.046120 0.703093
vt 0.033462 0.724146
vt 0.461696 0.688463
vt 0.493608 0.703835
vt 0.568496 0.995575
vt 0.555180 0.995575
vt 0.563315 0.949337
vt 0.328832 0.351358
vt 0.273504 0.394525
vt 0.299683 0.301715
vt 0.716504 0.207611
vt 0.702876 0.207611
vt 0.707963 0.190346
vt 0.763398 0.347940
vt 0.786373 0.337360
vt 0.754445 0.537667
vt 0.286918 0.762774
vt 0.253735 0.657119
vt 0.286918 0.628733
vt 0.004414 0.232121
vt 0.722799 0.987799
vt 0.703557 0.961977
vt 0.722799 0.951233
vt 0.763094 0.673853
vt 0.744252 0.658644
vt 0.755716 0.630381
vt 0.754445 0.445695
vt 0.701405 0.067019
vt 0.717919 0.079448
vt 0.723502 0.697160
vt 0.146557 0.375672
vt 0.721581 0.913064
vt 0.703557 0.921092
vt 0.709182 0.867342
vt 0.742200 0.567804
vt 0.763094 0.564362
vt 0.721581 0.942382
vt 0.920282 0.411659
vt 0.920282 0.484719
vt 0.901610 0.470013
vt 0.004414 0.666900
vt 0.024159 0.586777
vt 0.040518 0.671666
vt 0.864145 0.700052
vt 0.740580 0.299895
vt 0.726903 0.287452
vt 0.065392 0.183914
vt 0.031009 0.090589
vt 0.906999 0.525078
vt 0.918480 0.507388
vt 0.918480 0.543578
vt 0.702331 0.004425
vt 0.691967 0.009747
vt 0.396565 0.981332
vt 0.416317 0.956875
vt 0.416317 0.982149
vt 0.246836 0.989528
vt 0.238827 0.963772
vt 0.246836 0.955496
vt 0.471724 0.978299
vt 0.481017 0.943893
vt 0.481017 0.978401
vt 0.041931 0.217369
vt 0.143651 0.223271
vt 0.465028 0.557346
vt 0.386250 0.372075
vt 0.504598 0.557346
vt 0.149258 0.713962
vt 0.110345 0.621301
vt 0.124821 0.626382
vt 0.046120 0.573280
vt 0.492000 0.788886
vt 0.508573 0.875874
vt 0.491596 0.857532
vt 0.149258 0.593739
vt 0.689118 0.727897
vt 0.189238 0.400753
vt 0.748184 0.691202
vt 0.022871 0.175241
vt 0.114290 0.573280
vt 0.484658 0.878015
vt 0.508573 0.782325
vt 0.780075 0.970075
vt 0.794627 0.958398
vt 0.794627 0.986269
vt 0.954564 0.769459
vt 0.976923 0.763696
vt 0.976923 0.802677
vt 0.010442 0.195177
vt 0.712879 0.409984
vt 0.719775 0.386178
vt 0.145182 0.722812
vt 0.876468 0.683790
vt 0.905898 0.656635
vt 0.905898 0.688667
vt 0.752248 0.436845
vt 0.493608 0.566196
vt 0.434636 0.371027
vt 0.732330 0.621459
vt 0.500837 0.386608
vt 0.453794 0.391797
vt 0.903330 0.495483
vt 0.826574 0.388838
vt 0.845140 0.365750
vt 0.845140 0.402472
vt 0.421645 0.613887
vt 0.429499 0.583687
vt 0.429498 0.653281
vt 0.960474 0.066624
vt 0.943207 0.024247
vt 0.960474 0.004425
vt 0.511624 0.686991
vt 0.503713 0.582310
vt 0.511624 0.566196
vt 0.697424 0.379743
vt 0.692282 0.495083
vt 0.678313 0.494856
vt 0.327469 0.449627
vt 0.328143 0.525548
vt 0.308471 0.529305
vt 0.542232 0.627022
vt 0.554301 0.582377
vt 0.641492 0.630417
vt 0.650435 0.553245
vt 0.662179 0.592489
vt 0.651779 0.639346
vt 0.533924 0.556209
vt 0.603119 0.409187
vt 0.583705 0.339914
vt 0.598974 0.304608
vt 0.550910 0.539679
vt 0.533058 0.502647
vt 0.654708 0.323525
vt 0.648919 0.401581
vt 0.638499 0.391791
vt 0.693684 0.280141
vt 0.692953 0.217573
vt 0.704051 0.263438
vt 0.682118 0.278166
vt 0.281089 0.521595
vt 0.288425 0.409603
vt 0.296695 0.499100
vt 0.299643 0.454456
vt 0.638613 0.449069
vt 0.750976 0.068528
vt 0.749171 0.137290
vt 0.732585 0.125868
vt 0.253735 0.596682
vt 0.280675 0.619883
vt 0.297654 0.551845
vt 0.400060 0.875426
vt 0.397247 0.802014
vt 0.421134 0.853189
vt 0.388419 0.675859
vt 0.379077 0.722813
vt 0.349652 0.739854
vt 0.299643 0.612810
vt 0.388419 0.772809
vt 0.360122 0.762493
vt 0.421134 0.783124
vt 0.663626 0.520445
vt 0.559235 0.341423
vt 0.541865 0.299056
vt 0.561756 0.285121
vt 0.587947 0.586870
vt 0.584687 0.530425
vt 0.606219 0.579439
vt 0.731997 0.004425
vt 0.726747 0.086426
vt 0.591812 0.495035
vt 0.579562 0.475047
vt 0.974234 0.700052
vt 0.974234 0.754846
vt 0.954564 0.743683
vt 0.054948 0.893876
vt 0.073367 0.884088
vt 0.073367 0.949962
vt 0.839204 0.834015
vt 0.821554 0.902205
vt 0.816549 0.829940
vt 0.611107 0.277849
vt 0.952559 0.868947
vt 0.969358 0.814650
vt 0.969358 0.876626
vt 0.603321 0.219036
vt 0.619779 0.217573
vt 0.618901 0.234046
vt 0.876702 0.206303
vt 0.857739 0.171087
vt 0.873647 0.146427
vt 0.839204 0.907074
vt 0.637777 0.694556
vt 0.662179 0.706432
vt 0.547240 0.449441
vt 0.903335 0.399019
vt 0.881965 0.382718
vt 0.903335 0.330281
vt 0.521152 0.488938
vt 0.528272 0.408746
vt 0.928693 0.948021
vt 0.948370 0.904708
vt 0.948370 0.962101
vt 0.552587 0.387822
vt 0.886514 0.316624
vt 0.619779 0.634982
vt 0.600188 0.655004
vt 0.539164 0.339467
vt 0.548478 0.217573
vt 0.570734 0.224799
vt 0.750976 0.208528
vt 0.978983 0.271308
vt 0.981697 0.304411
vt 0.957499 0.304411
vt 0.238907 0.579707
vt 0.238907 0.693892
vt 0.225948 0.657192
vt 0.635251 0.309145
vt 0.617539 0.782999
vt 0.617539 0.886505
vt 0.612236 0.800176
vt 0.663626 0.217573
vt 0.685628 0.400186
vt 0.672454 0.367956
vt 0.475830 0.855489
vt 0.442304 0.786951
vt 0.475830 0.782325
vt 0.580823 0.397086
vt 0.340491 0.442545
vt 0.315167 0.561285
vt 0.680935 0.544704
vt 0.597714 0.261950
vt 0.975805 0.208412
vt 0.975805 0.247622
vt 0.957499 0.225236
vt 0.704051 0.539129
vt 0.962783 0.262458
vt 0.876702 0.106411
vt 0.229999 0.955496
vt 0.229999 0.991964
vt 0.212898 0.965227
vt 0.585866 0.271972
vt 0.818825 0.217573
vt 0.818825 0.282129
vt 0.795201 0.278278
vt 0.329725 0.409603
vt 0.628607 0.678206
vt 0.808887 0.331830
vt 0.938299 0.328888
vt 0.954581 0.316624
vt 0.954581 0.387032
vt 0.231546 0.772941
vt 0.628607 0.498532
vt 0.501347 0.721678
vt 0.470650 0.773475
vt 0.442304 0.744103
vt 0.651971 0.544395
vt 0.446679 0.724657
vt 0.467604 0.712685
vt 0.694617 0.966755
vt 0.667579 0.966755
vt 0.673998 0.931578
vt 0.501347 0.761506
vt 0.568027 0.719678
vt 0.340491 0.587511
vt 0.929110 0.432329
vt 0.946273 0.411659
vt 0.946273 0.482341
vt 0.699571 0.555511
vn 0.4766 -0.8530 0.2127
vn 0.8641 -0.3276 0.3821
vn 0.0495 -0.9951 0.0852
vn -0.1671 -0.9593 -0.2273
vn 0.1999 0.3890 -0.8993
vn -0.8026 0.0858 -0.5902
vn 0.1190 -0.5849 0.8023
vn 0.4505 -0.7100 0.5412
vn -0.1935 -0.6008 0.7756
vn 0.3389 -0.7713 -0.5387
vn 0.2778 -0.8459 -0.4552
vn -0.0084 -0.9442 0.3291
vn -0.0441 -0.9043 -0.4245
vn -0.6550 -0.7455 0.1230
vn -0.6742 -0.7025 0.2280
vn -0.4574 -0.5188 0.7222
vn -0.8643 0.2327 -0.4459
vn -0.4441 -0.8904 0.0990
vn -0.8766 0.0175 0.4809
vn -0.1447 -0.9714 -0.1882
vn -0.4346 -0.7352 0.5201
vn 0.2280 -0.5331 -0.8147
vn -0.5581 -0.3488 0.7529
vn -0.1569 -0.5817 0.7981
vn -0.2000 -0.9760 0.0855
vn 0.4316 -0.4859 -0.7600
vn 0.3768 0.1686 -0.9108
vn 0.4663 -0.8602 -0.2064
vn -0.2609 -0.6781 0.6871
vn 0.8293 0.1831 -0.5279
vn 0.3838 0.4683 -0.7958
vn 0.1656 0.1514 -0.9745
vn -0.3940 -0.4305 0.8120
vn 0.1628 0.5968 -0.7857
vn 0.4831 -0.8573 0.1778
vn 0.8569 -0.1602 0.4900
vn -0.4035 -0.0786 0.9116
vn -0.4193 -0.8714 0.2546
vn -0.2419 -0.6224 0.7444
vn 0.0771 -0.6831 -0.7262
vn 0.3614 -0.9312 0.0466
vn -0.2749 0.1488 0.9499
vn 0.2298 -0.0555 0.9716
vn 0.2822 0.1949 0.9393
vn 0.5930 -0.4162 -0.6893
vn -0.7238 -0.2080 0.6579
vn 0.4885 -0.3529 0.7980
vn 0.9787 -0.2018 0.0371
vn 0.9587 0.2365 0.1579
vn 0.9101 0.2599 0.3226
vn -0.1682 -0.9698 -0.1766
vn 0.3457 -0.5969 -0.7240
vn 0.9797 -0.0339 0.1976
vn 0.3222 0.2826 0.9035
vn 0.4014 -0.2396 -0.8840
vn 0.7479 -0.1919 -0.6355
vn 0.4218 -0.1742 -0.8898
vn -0.2869 0.9566 -0.0500
vn 0.4042 0.9142 -0.0287
vn 0.5017 0.7113 -0.4923
vn -0.4389 0.7329 0.5198
vn 0.1103 0.7680 0.6309
vn -0.0873 0.9501 0.2995
vn 0.0648 -0.2265 -0.9718
vn -0.2667 -0.1358 -0.9541
vn -0.9607 -0.0091 -0.2774
vn -0.2185 -0.1212 -0.9683
vn -0.3752 -0.8249 -0.4227
vn 0.3231 -0.3012 -0.8971
vn -0.3439 0.1901 -0.9196
vn -0.1639 -0.7664 -0.6211
vn -0.9652 -0.0499 -0.2565
vn -0.9178 0.3251 -0.2279
vn -0.9923 -0.1224 -0.0198
vn 0.9895 -0.0240 -0.1424
vn -0.9148 -0.3270 -0.2372
vn -0.9250 0.1962 -0.3254
vn -0.5753 0.1337 0.8069
vn -0.6813 0.2116 0.7007
vn -0.9643 0.2315 0.1285
vn -0.3770 0.3060 0.8742
vn -0.3598 0.7665 -0.5319
vn -0.8397 0.4313 0.3299
vn -0.1306 0.6361 -0.7604
vn -0.1982 -0.3896 0.8994
vn -0.5908 -0.2613 0.7633
vn 0.1050 -0.2138 0.9712
vn -0.9088 -0.2986 0.2912
vn -0.9458 -0.0659 -0.3178
vn -0.5574 0.0909 -0.8252
vn -0.1810 0.2391 -0.9539
vn 0.7302 0.2406 -0.6394
vn 0.6439 0.2888 -0.7085
vn 0.9023 0.0388 0.4292
vn 0.6301 -0.0438 0.7753
vn -0.9269 0.0612 -0.3702
vn -0.5249 0.1494 -0.8379
vn -0.5341 -0.1674 0.8286
vn -0.3134 -0.0237 0.9493
vn 0.4274 -0.0528 0.9025
vn -0.8983 -0.1752 0.4028
vn -0.9765 0.0090 -0.2154
vn -0.9481 -0.0323 -0.3164
vn -0.9500 0.0739 0.3032
vn -0.9224 0.0701 -0.3798
vn 0.5173 0.0361 0.8550
vn 0.9965 -0.0526 -0.0649
vn 0.9594 0.2044 -0.1940
vn 0.2650 0.1794 -0.9474
vn -0.6388 -0.0595 0.7671
vn -0.8385 -0.5314 -0.1207
vn -0.7225 0.2484 -0.6452
vn 0.9832 0.0347 0.1791
vn 0.4296 0.0703 0.9003
vn -0.6884 -0.1780 -0.7031
vn -0.2284 -0.7774 0.5860
vn 0.5747 -0.6716 0.4677
vn 0.6516 -0.5044 -0.5665
vn 0.9474 -0.0664 0.3130
vn 0.7549 0.0340 -0.6549
vn 0.0088 0.0593 -0.9982
vn 0.2361 -0.2163 0.9473
vn 0.8147 -0.0607 0.5767
vn 0.8941 0.1772 -0.4113
vn -0.2654 0.0365 -0.9634
vn 0.0526 0.2059 -0.9771
vn 0.9592 0.0927 0.2670
vn 0.1084 -0.3740 0.9210
vn 0.9954 0.0658 -0.0688
vn -0.0669 -0.4002 -0.9140
vn -0.9222 -0.1848 0.3397
vn 0.8509 -0.2348 0.4698
usemtl GAMEPREV
s 1
f 121/1/1 130/2/2 21/3/3
f 129/4/4 123/5/5 74/6/6
f 15/7/7 132/8/8 1/9/9
f 24/10/10 59/11/11 131/12/12
f 49/13/13 127/14/14 128/15/15
f 21/3/3 131/12/12 121/1/1
f 21/16/3 130/17/2 132/8/8
f 131/12/12 21/3/3 24/10/10
f 1/9/9 129/18/4 71/19/16
f 129/4/4 74/6/6 122/20/17
f 132/21/8 130/22/2 121/23/1
f 69/24/18 71/19/16 127/25/14
f 119/26/19 128/27/15 127/28/14
f 2/29/20 6/30/21 5/31/22
f 9/32/23 3/33/24 8/34/25
f 2/35/20 5/36/22 8/37/25
f 13/38/26 8/37/25 5/36/22
f 13/39/26 5/40/22 10/41/27
f 3/33/24 2/42/20 8/34/25
f 43/43/28 8/37/25 13/38/26
f 8/44/25 44/45/29 9/46/23
f 10/47/27 12/48/30 13/49/26
f 14/50/31 12/51/30 10/52/27
f 4/53/32 10/41/27 5/40/22
f 9/46/23 11/54/33 3/55/24
f 10/52/27 56/56/34 14/50/31
f 56/56/34 10/52/27 4/57/32
f 24/10/10 22/58/35 47/59/36
f 31/60/37 30/61/38 29/62/39
f 28/63/40 34/64/41 29/65/39
f 36/66/42 32/67/43 26/68/44
f 29/65/39 30/69/38 28/63/40
f 36/66/42 31/70/37 32/67/43
f 29/71/39 32/67/43 31/70/37
f 28/72/40 33/73/45 34/74/41
f 41/75/46 31/70/37 36/66/42
f 44/76/29 43/77/28 45/78/47
f 43/79/28 46/80/48 45/81/47
f 12/48/30 46/82/48 43/83/28
f 44/84/29 45/85/47 11/86/33
f 44/45/29 11/54/33 9/46/23
f 8/37/25 43/43/28 44/87/29
f 22/88/35 19/89/49 17/90/50
f 12/48/30 43/83/28 13/49/26
f 15/91/7 11/92/33 46/93/48
f 19/94/49 15/95/7 46/96/48
f 30/97/38 37/98/51 38/99/52
f 48/100/53 32/101/43 34/102/41
f 26/68/44 20/103/54 36/66/42
f 54/104/55 27/105/56 64/106/57
f 57/107/58 18/108/59 16/109/60
f 132/8/8 129/18/4 1/9/9
f 14/50/31 56/56/34 16/109/60
f 50/110/61 25/111/62 60/112/63
f 3/113/24 15/114/7 1/115/9
f 1/9/9 71/19/16 3/33/24
f 24/116/10 42/117/64 59/118/11
f 54/119/55 62/120/65 42/121/64
f 18/122/59 19/123/49 16/124/60
f 24/125/10 47/126/36 27/127/56
f 21/3/3 22/58/35 24/10/10
f 18/128/59 25/111/62 17/129/50
f 51/130/66 39/131/67 40/132/68
f 41/133/46 37/134/51 30/135/38
f 41/136/46 51/137/66 40/138/68
f 16/124/60 19/123/49 12/139/30
f 12/139/30 19/123/49 46/140/48
f 45/141/47 46/142/48 11/143/33
f 40/132/68 39/131/67 38/144/52
f 39/131/67 62/145/65 38/144/52
f 64/106/57 28/72/40 35/146/69
f 35/146/69 54/104/55 64/106/57
f 35/146/69 38/144/52 54/104/55
f 32/147/43 29/148/39 34/149/41
f 65/150/70 4/53/32 7/151/71
f 18/128/59 60/112/63 25/111/62
f 22/88/35 15/152/7 19/89/49
f 21/16/3 132/8/8 15/7/7
f 3/153/24 11/154/33 15/155/7
f 15/7/7 22/156/35 21/16/3
f 61/157/72 72/158/73 69/159/18
f 69/160/18 68/161/74 71/162/16
f 22/88/35 17/90/50 47/163/36
f 27/127/56 58/164/75 64/165/57
f 60/112/63 18/128/59 57/166/58
f 6/167/21 3/33/24 71/19/16
f 65/168/70 66/169/76 73/170/77
f 66/171/76 6/172/21 71/162/16
f 65/168/70 7/173/71 66/169/76
f 5/40/22 7/151/71 4/53/32
f 3/33/24 6/167/21 2/42/20
f 5/174/22 6/175/21 7/176/71
f 16/109/60 12/51/30 14/50/31
f 55/177/78 53/178/79 63/179/80
f 28/72/40 64/106/57 33/73/45
f 30/69/38 38/180/52 28/63/40
f 48/100/53 58/181/75 26/182/44
f 28/72/40 38/144/52 35/146/69
f 23/183/81 55/184/78 36/66/42
f 39/185/67 51/186/66 63/187/80
f 51/137/66 41/136/46 55/177/78
f 55/177/78 63/179/80 51/137/66
f 33/188/45 64/165/57 48/189/53
f 40/190/68 37/191/51 41/192/46
f 34/193/41 33/194/45 48/195/53
f 37/196/51 40/197/68 38/198/52
f 50/110/61 60/112/63 57/166/58
f 50/199/61 23/183/81 25/200/62
f 69/201/18 127/14/14 49/13/13
f 70/202/82 57/107/58 16/109/60
f 61/203/72 69/201/18 49/13/13
f 63/204/80 52/205/83 61/206/72
f 53/178/79 52/207/83 63/179/80
f 62/208/65 61/209/72 42/210/64
f 72/211/73 61/206/72 52/205/83
f 52/212/83 50/110/61 57/166/58
f 49/213/13 59/118/11 42/117/64
f 72/214/73 68/161/74 69/160/18
f 53/215/79 23/183/81 50/199/61
f 49/13/13 128/15/15 59/11/11
f 72/211/73 52/205/83 57/216/58
f 42/210/64 61/209/72 49/217/13
f 23/183/81 53/215/79 55/184/78
f 62/208/65 63/218/80 61/209/72
f 63/219/80 62/220/65 39/221/67
f 70/222/82 72/223/73 57/224/58
f 56/56/34 70/202/82 16/109/60
f 52/225/83 53/215/79 50/199/61
f 20/226/54 26/182/44 47/227/36
f 48/189/53 64/165/57 58/164/75
f 26/182/44 32/101/43 48/100/53
f 31/60/37 41/228/46 30/61/38
f 23/183/81 36/66/42 20/103/54
f 24/116/10 27/105/56 42/117/64
f 58/164/75 27/127/56 47/126/36
f 26/182/44 58/181/75 47/227/36
f 20/103/54 25/200/62 23/183/81
f 20/229/54 17/230/50 25/231/62
f 20/226/54 47/227/36 17/232/50
f 17/233/50 19/123/49 18/122/59
f 67/234/84 70/202/82 56/56/34
f 73/235/77 71/162/16 68/161/74
f 67/234/84 65/236/70 73/237/77
f 67/234/84 56/56/34 4/57/32
f 65/236/70 67/234/84 4/57/32
f 7/176/71 6/175/21 66/238/76
f 66/171/76 71/162/16 73/235/77
f 38/144/52 62/145/65 54/104/55
f 70/239/82 68/240/74 72/241/73
f 68/242/74 70/243/82 73/244/77
f 70/245/82 67/246/84 73/247/77
f 42/117/64 27/105/56 54/104/55
f 55/184/78 41/75/46 36/66/42
f 115/248/85 80/249/86 81/250/87
f 80/251/86 115/252/85 75/253/88
f 82/254/89 75/255/88 74/256/6
f 74/6/6 76/257/90 82/258/89
f 124/259/91 123/260/5 78/261/92
f 124/259/91 78/261/92 79/262/93
f 76/257/90 123/5/5 124/263/91
f 81/264/87 118/265/94 117/266/95
f 82/258/89 124/263/91 83/267/96
f 86/268/97 83/267/96 124/263/91
f 88/269/98 108/270/99 109/271/100
f 85/272/101 92/273/102 88/274/98
f 85/272/101 87/275/103 92/273/102
f 97/276/104 88/277/98 95/278/105
f 95/278/105 88/277/98 92/279/102
f 108/270/99 107/280/106 109/271/100
f 93/281/107 101/282/108 94/283/109
f 98/284/110 97/276/104 99/285/111
f 96/286/112 99/285/111 97/276/104
f 97/276/104 95/278/105 96/286/112
f 107/287/106 102/288/113 101/289/108
f 107/290/106 104/291/114 102/292/113
f 96/286/112 100/293/115 99/285/111
f 105/294/116 103/295/117 104/291/114
f 103/295/117 102/292/113 104/291/114
f 102/288/113 106/296/118 101/289/108
f 107/280/106 108/270/99 98/297/110
f 95/298/105 94/299/109 96/300/112
f 93/301/107 110/302/119 109/303/100
f 90/304/120 93/281/107 91/305/121
f 111/306/122 109/303/100 110/302/119
f 110/302/119 113/307/123 111/306/122
f 110/308/119 112/309/124 113/310/123
f 90/311/120 89/312/125 84/313/126
f 113/307/123 81/264/87 111/306/122
f 112/314/124 126/315/127 113/316/123
f 115/317/85 81/264/87 117/266/95
f 79/318/93 78/319/92 126/320/127
f 121/321/1 131/322/12 120/323/128
f 78/324/92 123/325/5 116/326/129
f 126/315/127 112/314/124 79/327/93
f 84/328/126 124/259/91 79/262/93
f 112/329/124 84/328/126 79/262/93
f 83/267/96 86/268/97 87/330/103
f 84/331/126 112/332/124 90/333/120
f 87/330/103 84/334/126 89/335/125
f 110/336/119 93/337/107 90/338/120
f 92/339/102 87/330/103 89/335/125
f 110/340/119 90/333/120 112/332/124
f 93/301/107 107/341/106 101/342/108
f 94/299/109 95/298/105 91/343/121
f 125/344/130 100/345/115 94/299/109
f 106/346/118 94/283/109 101/282/108
f 96/300/112 94/299/109 100/345/115
f 93/301/107 109/303/100 107/341/106
f 91/305/121 93/281/107 94/283/109
f 106/347/118 102/348/113 103/349/117
f 98/350/110 108/351/99 97/352/104
f 111/353/122 88/269/98 109/271/100
f 80/354/86 111/355/122 81/356/87
f 80/357/86 88/269/98 111/353/122
f 80/251/86 75/253/88 77/358/131
f 87/275/103 85/272/101 83/359/96
f 85/272/101 77/358/131 83/359/96
f 94/360/109 106/361/118 125/362/130
f 77/358/131 85/272/101 80/251/86
f 85/272/101 88/274/98 80/251/86
f 81/264/87 113/307/123 126/363/127
f 124/263/91 82/258/89 76/257/90
f 75/255/88 82/254/89 77/364/131
f 119/26/19 127/28/14 122/365/17
f 75/253/88 115/252/85 119/366/19
f 114/367/132 120/323/128 115/317/85
f 121/321/1 120/323/128 114/367/132
f 121/368/1 114/369/132 132/370/8
f 115/317/85 117/266/95 114/367/132
f 122/365/17 74/256/6 75/255/88
f 119/26/19 122/365/17 75/255/88
f 115/252/85 120/371/128 119/366/19
f 114/369/132 116/372/129 132/370/8
f 123/325/5 132/373/8 116/326/129
f 114/374/132 117/375/95 116/376/129
f 116/377/129 117/266/95 118/265/94
f 123/5/5 76/257/90 74/6/6
f 116/378/129 118/379/94 78/380/92
f 82/254/89 83/381/96 77/364/131
f 124/259/91 84/328/126 86/382/97
f 118/379/94 126/383/127 78/380/92
f 126/363/127 118/265/94 81/264/87
f 89/384/125 90/385/120 91/386/121
f 91/343/121 95/298/105 92/339/102
f 92/339/102 89/335/125 91/343/121
f 84/334/126 87/330/103 86/268/97
f 108/351/99 88/387/98 97/352/104
f 98/297/110 104/388/114 107/280/106
f 106/389/118 105/390/116 99/391/111
f 105/392/116 104/388/114 98/297/110
f 100/393/115 125/394/130 99/391/111
f 106/389/118 99/391/111 125/394/130
f 105/395/116 98/396/110 99/397/111
f 105/390/116 106/389/118 103/398/117
f 131/12/12 59/11/11 128/15/15
f 129/4/4 122/20/17 127/399/14
f 128/27/15 119/26/19 131/400/12
f 129/401/4 132/402/8 123/403/5
f 131/404/12 119/366/19 120/371/128
f 127/25/14 71/19/16 129/18/4
